<svg width="72" height="72" viewBox="0 0 72 72" fill="none" xmlns="http://www.w3.org/2000/svg">
<path d="M52.6667 19C52.6667 17.5272 51.4728 16.3333 50 16.3333C48.5272 16.3333 47.3333 17.5272 47.3333 19C47.3333 20.4728 48.5272 21.6667 50 21.6667C51.4728 21.6667 52.6667 20.4728 52.6667 19ZM50 19V18.5H48.9811V19V19.5H50V19ZM46.9434 19V18.5H44.9056V19V19.5H46.9434V19ZM42.8678 19V18.5H40.8301V19V19.5H42.8678V19ZM38.7923 19V18.5H36.7545V19V19.5H38.7923V19ZM34.7168 19V18.5H32.679V19V19.5H34.7168V19ZM30.6413 19V18.5H28.6035V19V19.5H30.6413V19ZM26.5657 19V18.5H24.528V19V19.5H26.5657V19ZM22.4902 19V18.5H20.4525V19V19.5H22.4902V19ZM18.4147 19V18.5H16.3769V19V19.5H18.4147V19ZM14.3392 19V18.5H12.3014V19V19.5H14.3392V19ZM10.2636 19V18.5L8.22588 18.5V19V19.5L10.2636 19.5V19ZM6.18812 19V18.5H5.16923V19V19.5H6.18812V19Z" fill="#26619C"/>
<path d="M61.8868 32L59 29.1132L56.1132 32L59 34.8868L61.8868 32ZM59 32V31.5H58.0357V32V32.5H59V32ZM56.1071 32V31.5H54.1786V32V32.5H56.1071V32ZM52.25 32V31.5H50.3214V32V32.5H52.25V32ZM48.3929 32V31.5H46.4643V32V32.5H48.3929V32ZM44.5357 32V31.5L42.6071 31.5V32V32.5H44.5357V32ZM40.6786 32V31.5H38.75V32V32.5H40.6786V32ZM36.8214 32V31.5H34.8929V32V32.5H36.8214V32ZM32.9643 32V31.5H31.0357V32V32.5H32.9643V32ZM29.1071 32V31.5H27.1786V32V32.5H29.1071V32ZM25.25 32V31.5H23.3214V32V32.5H25.25V32ZM21.3929 32V31.5H19.4643V32V32.5H21.3929V32ZM17.5357 32V31.5L15.6071 31.5V32V32.5H17.5357V32ZM13.6786 32V31.5H11.75V32V32.5H13.6786V32ZM9.82144 32V31.5H7.89287V32V32.5H9.82144V32ZM5.9643 32V31.5H5V32V32.5H5.9643V32Z" fill="#FDCE07"/>
<path d="M69.8868 45L67 42.1132L64.1132 45L67 47.8868L69.8868 45ZM67 45V44.5H66.0312V45V45.5H67V45ZM64.0938 45V44.5H62.1562V45V45.5H64.0938V45ZM60.2188 45V44.5H58.2812V45V45.5H60.2188V45ZM56.3438 45V44.5H54.4062V45V45.5H56.3438V45ZM52.4688 45V44.5H50.5312V45V45.5H52.4688V45ZM48.5938 45V44.5H46.6562V45V45.5H48.5938V45ZM44.7188 45V44.5H42.7812V45V45.5H44.7188V45ZM40.8438 45V44.5L38.9062 44.5V45V45.5H40.8438V45ZM36.9688 45V44.5H35.0312V45V45.5H36.9688V45ZM33.0938 45V44.5H31.1562V45V45.5H33.0938V45ZM29.2188 45V44.5H27.2812V45V45.5H29.2188V45ZM25.3438 45V44.5H23.4062V45V45.5H25.3438V45ZM21.4688 45V44.5H19.5312V45V45.5H21.4688V45ZM17.5938 45V44.5H15.6562V45V45.5H17.5938V45ZM13.7188 45V44.5H11.7812V45V45.5H13.7188V45ZM9.84375 45V44.5H7.90625V45V45.5H9.84375V45ZM5.96875 45V44.5H5V45V45.5H5.96875V45Z" fill="#FDCE07"/>
<path d="M41.6667 58C41.6667 56.5272 40.4728 55.3333 39 55.3333C37.5272 55.3333 36.3333 56.5272 36.3333 58C36.3333 59.4728 37.5272 60.6667 39 60.6667C40.4728 60.6667 41.6667 59.4728 41.6667 58ZM39 58V57.5H38.0556V58V58.5H39V58ZM36.1667 58V57.5H34.2778V58V58.5H36.1667V58ZM32.3889 58V57.5H30.5V58V58.5H32.3889V58ZM28.6111 58V57.5H26.7222V58V58.5H28.6111V58ZM24.8333 58V57.5H22.9444V58V58.5H24.8333V58ZM21.0556 58V57.5H19.1667V58V58.5H21.0556V58ZM17.2778 58V57.5H15.3889V58V58.5H17.2778V58ZM13.5 58V57.5H11.6111V58V58.5H13.5V58ZM9.72222 58V57.5H7.83333V58V58.5L9.72222 58.5V58ZM5.94444 58V57.5H5V58V58.5H5.94444V58Z" fill="#26619C"/>
<line x1="5.5" y1="9" x2="5.5" y2="63" stroke="#26619C"/>
</svg>
