<svg width="72" height="72" viewBox="0 0 72 72" fill="none" xmlns="http://www.w3.org/2000/svg">
<path d="M52.4974 26.5C52.4974 25.0272 51.3035 23.8333 49.8307 23.8333C48.358 23.8333 47.1641 25.0272 47.1641 26.5C47.1641 27.9728 48.358 29.1667 49.8307 29.1667C51.3035 29.1667 52.4974 27.9728 52.4974 26.5ZM49.8307 26.5V26H48.8119V26.5V27H49.8307V26.5ZM46.7741 26.5V26H44.7363V26.5V27H46.7741V26.5ZM42.6986 26.5V26H40.6608V26.5V27H42.6986V26.5ZM38.6231 26.5V26H36.5853V26.5V27H38.6231V26.5ZM34.5475 26.5V26H32.5098V26.5V27H34.5475V26.5ZM30.472 26.5V26H28.4342V26.5V27H30.472V26.5ZM26.3965 26.5V26H24.3587V26.5V27H26.3965V26.5ZM22.321 26.5V26H20.2832V26.5V27H22.321V26.5ZM18.2454 26.5V26H16.2077V26.5V27H18.2454V26.5ZM14.1699 26.5V26H12.1322V26.5V27H14.1699V26.5ZM10.0944 26.5V26L8.05663 26V26.5V27L10.0944 27V26.5ZM6.01887 26.5V26H4.99998V26.5V27H6.01887V26.5Z" fill="#26619C"/>
<path d="M69.6667 43.5C69.6667 42.0272 68.4728 40.8333 67 40.8333C65.5272 40.8333 64.3333 42.0272 64.3333 43.5C64.3333 44.9728 65.5272 46.1667 67 46.1667C68.4728 46.1667 69.6667 44.9728 69.6667 43.5ZM67 43.5V43H66.0312V43.5V44H67V43.5ZM64.0938 43.5V43H62.1562V43.5V44H64.0938V43.5ZM60.2188 43.5V43H58.2812V43.5V44H60.2188V43.5ZM56.3438 43.5V43H54.4062V43.5V44H56.3438V43.5ZM52.4688 43.5V43H50.5312V43.5V44H52.4688V43.5ZM48.5938 43.5V43H46.6562V43.5V44H48.5938V43.5ZM44.7188 43.5V43H42.7812V43.5V44H44.7188V43.5ZM40.8438 43.5V43L38.9062 43V43.5V44H40.8438V43.5ZM36.9688 43.5V43H35.0312V43.5V44H36.9688V43.5ZM33.0938 43.5V43H31.1562V43.5V44H33.0938V43.5ZM29.2188 43.5V43H27.2812V43.5V44H29.2188V43.5ZM25.3438 43.5V43H23.4062V43.5V44H25.3438V43.5ZM21.4688 43.5V43H19.5312V43.5V44H21.4688V43.5ZM17.5938 43.5V43H15.6562V43.5V44H17.5938V43.5ZM13.7188 43.5V43H11.7812V43.5V44H13.7188V43.5ZM9.84375 43.5V43H7.90625V43.5V44H9.84375V43.5ZM5.96875 43.5V43H5V43.5V44H5.96875V43.5Z" fill="#26619C"/>
<line x1="5.5" y1="9" x2="5.5" y2="63" stroke="#26619C"/>
</svg>
