<svg width="72" height="72" viewBox="0 0 72 72" fill="none" xmlns="http://www.w3.org/2000/svg">
<rect width="26.0962" height="9" transform="matrix(0 1 -1 0 11 38.9038)" fill="white"/>
<rect x="10.5" y="39.4038" width="25.0962" height="8" rx="4" transform="rotate(90 10.5 39.4038)" fill="#BCCFDA" stroke="#26619C" stroke-linejoin="round"/>
<rect width="45.3846" height="9" transform="matrix(0 1 -1 0 26 19.6155)" fill="white"/>
<rect x="25.5" y="20.1155" width="44.3846" height="8" rx="4" transform="rotate(90 25.5 20.1155)" fill="#BCCFDA" stroke="#26619C" stroke-linejoin="round"/>
<rect width="59" height="9" transform="matrix(0 1 -1 0 41 6)" fill="white"/>
<rect x="40.5" y="6.5" width="58" height="8" rx="4" transform="rotate(90 40.5 6.5)" fill="#BCCFDA" stroke="#26619C" stroke-linejoin="round"/>
<rect width="38.5769" height="9" transform="matrix(0 1 -1 0 56 26.4231)" fill="white"/>
<rect x="55.5" y="26.9231" width="37.5769" height="8" rx="4" transform="rotate(90 55.5 26.9231)" fill="#BCCFDA" stroke="#26619C" stroke-linejoin="round"/>
<rect width="20.4231" height="9" transform="matrix(0 1 -1 0 71 44.5769)" fill="white"/>
<rect x="70.5" y="45.0769" width="19.4231" height="8" rx="4" transform="rotate(90 70.5 45.0769)" fill="#BCCFDA" stroke="#26619C" stroke-linejoin="round"/>
</svg>
