<svg width="73" height="72" viewBox="0 0 73 72" fill="none" xmlns="http://www.w3.org/2000/svg">
<g filter="url(#filter0_d_128_252)">
<rect width="23" height="9" transform="translate(4 31)" fill="white"/>
<rect x="4.5" y="31.5" width="22" height="8" rx="4" fill="#BCCFDA" stroke="#26619C" stroke-linejoin="round"/>
<rect width="23" height="9" transform="translate(46 40)" fill="white"/>
<rect x="46.5" y="40.5" width="22" height="8" rx="4" fill="#BCCFDA" stroke="#26619C" stroke-linejoin="round"/>
<rect width="23" height="9" transform="translate(46 22)" fill="white"/>
<rect x="46.5" y="22.5" width="22" height="8" rx="4" fill="#BCCFDA" stroke="#26619C" stroke-linejoin="round"/>
<path d="M26.5 35C26.5 35 31.6513 35.0918 36.5 30.5C41.3487 25.9082 46.5 26.5 46.5 26.5" stroke="#26619C"/>
<path d="M26.2406 35.9791C26.2406 35.9791 31.3919 35.8873 36.2407 40.4791C41.0894 45.071 46.2406 44.4791 46.2406 44.4791" stroke="#26619C"/>
</g>
<defs>
<filter id="filter0_d_128_252" x="-3" y="0" width="80" height="80" filterUnits="userSpaceOnUse" color-interpolation-filters="sRGB">
<feFlood flood-opacity="0" result="BackgroundImageFix"/>
<feColorMatrix in="SourceAlpha" type="matrix" values="0 0 0 0 0 0 0 0 0 0 0 0 0 0 0 0 0 0 127 0" result="hardAlpha"/>
<feOffset dy="4"/>
<feGaussianBlur stdDeviation="2"/>
<feComposite in2="hardAlpha" operator="out"/>
<feColorMatrix type="matrix" values="0 0 0 0 0 0 0 0 0 0 0 0 0 0 0 0 0 0 0.25 0"/>
<feBlend mode="normal" in2="BackgroundImageFix" result="effect1_dropShadow_128_252"/>
<feBlend mode="normal" in="SourceGraphic" in2="effect1_dropShadow_128_252" result="shape"/>
</filter>
</defs>
</svg>
